<?xml version="1.0" standalone="no"?>
<!DOCTYPE svg PUBLIC "-//W3C//DTD SVG 20010904//EN"
 "http://www.w3.org/TR/2001/REC-SVG-20010904/DTD/svg10.dtd">
<svg version="1.0" xmlns="http://www.w3.org/2000/svg"
 width="227.000000pt" height="227.000000pt" viewBox="0 0 227.000000 227.000000"
 preserveAspectRatio="xMidYMid meet">

<g transform="translate(0.000000,227.000000) scale(0.100000,-0.100000)"
fill="#f3eadb" stroke="none">
<path d="M600 2210 c-243 -19 -397 -105 -484 -269 -69 -132 -71 -153 -71 -821
0 -652 0 -658 62 -788 37 -80 144 -184 225 -221 135 -61 225 -71 698 -75 402
-4 657 6 765 29 225 47 364 182 412 401 16 70 18 142 18 659 0 642 -2 673 -60
795 -84 174 -234 265 -479 289 -121 12 -933 13 -1086 1z m1086 -161 c145 -20
242 -76 299 -173 51 -88 55 -132 62 -676 4 -359 3 -534 -6 -605 -24 -208 -113
-312 -308 -363 -60 -15 -127 -17 -598 -17 -470 0 -538 2 -598 17 -166 43 -259
133 -298 288 -11 44 -14 168 -13 615 1 488 3 569 18 630 40 165 148 258 331
284 90 13 1019 13 1111 0z"/>
<path d="M587 1916 c-62 -17 -121 -73 -135 -130 -6 -22 -13 -81 -16 -131 -49
-785 -56 -942 -46 -994 20 -106 61 -164 154 -214 40 -21 52 -22 394 -25 l353
-3 -3 58 -3 58 -325 5 c-220 3 -331 9 -345 17 -44 25 -68 62 -72 110 -5 60 19
102 73 129 37 18 72 19 585 24 l546 5 35 25 c71 48 73 58 71 305 -2 121 -7
312 -13 424 -12 242 -22 273 -98 319 l-47 27 -530 2 c-413 2 -541 -1 -578 -11z
m631 -149 c8 -6 12 -37 12 -97 l0 -89 103 -3 102 -3 0 -80 0 -80 -102 -3 -103
-3 0 -158 c0 -124 -3 -161 -14 -170 -9 -7 -42 -11 -88 -9 l-73 3 -5 165 -5
165 -100 5 -100 5 0 80 0 80 100 5 100 5 3 92 c2 76 6 92 19 95 33 6 138 3
151 -5z"/>
<path d="M1856 792 c-10 -12 -38 -29 -63 -39 l-45 -18 5 -45 c6 -48 -11 -110
-37 -139 -22 -24 -22 -111 -1 -111 50 0 137 85 155 149 6 23 9 82 8 132 -3 90
-3 91 -22 71z"/>
<path d="M1357 703 c-11 -10 -8 -393 2 -393 5 0 33 19 61 43 29 23 58 46 65
51 9 7 31 -4 71 -35 32 -24 64 -48 71 -52 10 -6 13 31 13 193 l0 200 -138 0
c-76 0 -142 -3 -145 -7z"/>
</g>
</svg>
